<?xml version="1.0" ?><svg id="Layer_1" style="enable-background:new 0 0 595.3 595.3;" version="1.1" viewBox="0 0 595.3 595.3" xml:space="preserve" xmlns="http://www.w3.org/2000/svg" xmlns:xlink="http://www.w3.org/1999/xlink"><style type="text/css">
	.st0{fill:transparent;}
	.st1{fill:#EDBD44;}
	.st2{fill:#C5802A;}
	.st3{fill:#009444;}
	.st4{fill:#006838;}
	.st5{fill:#77AAB6;}
	.st6{fill:#167D88;}
	.st7{fill:#005A67;}
	.st8{fill:#6F2334;}
	.st9{fill:#460618;}
	.st10{fill:#961634;}
	.st11{fill:#008245;}
	.st12{fill:#35A0AD;}
	.st13{fill:#203A40;}
	.st14{fill:#27545D;}
</style><rect class="st0" height="595.3" width="595.3"/><g><g><path class="st1" d="M328.6,210.4L328.6,210.4c-8.8-9.4-8.3-47-8.3-47l0-16.2h-22.7H275l0,16.2c0,0,0.5,37.6-8.3,47l0,0    C186.7,234.7,126.1,347.2,126.1,414c0,75.3,76.8,85,171.6,85c94.7,0,171.6-9.8,171.6-85C469.2,347.2,408.6,234.7,328.6,210.4z"/></g><g><path class="st2" d="M328.6,202.6c0,1.2-0.9,2.2-2,2.2h-57.9c-1.1,0-2-1-2-2.2v-22.1c0-1.2,0.9-2.2,2-2.2h57.9c1.1,0,2,1,2,2.2    V202.6z"/></g><g><path class="st1" d="M354,150.1c0,31.1-25.2,28-56.4,28c-31.1,0-56.4,3.1-56.4-28c0-17,24.3-7.1,36.2-17.4c9.9-8.6,6.1-39,20.2-39    c13.5,0,10,31.1,19.7,39C330.1,143,354,132.4,354,150.1z"/></g><g><g><path class="st2" d="M355.9,364.4c-2.8-5.5-6.8-10-11.8-13.6c-5-3.6-11.2-6.6-18.3-9.1c-7.2-2.5-15.2-4.8-24.1-6.9     c-7.1-1.8-12.2-3.1-15.2-4.1c-3.1-0.9-6.1-2.2-9.1-3.9c-3-1.6-5.4-3.6-7.1-5.9c-1.7-2.3-2.6-5-2.6-8.1c0-5.1,2.5-9.4,7.6-13     c5-3.6,11.7-5.4,19.9-5.4c8.9,0,15.3,1.7,19.3,5c4,3.3,7.4,8,10.3,13.9c2.2,4.1,4.3,7.1,6.2,9c1.9,1.8,4.7,2.7,8.3,2.7     c4,0,7.3-1.5,10-4.6c2.7-3,4-6.4,4-10.2c0-4.1-1.1-8.4-3.2-12.8c-2.1-4.4-5.5-8.5-10.2-12.5c-4.6-4-10.5-7.1-17.5-9.5     c-4.4-1.5-9.2-2.5-14.6-3.1v-23.4h-20.1v23.4c-8.1,0.7-15.4,2.4-21.8,5c-8.9,3.6-15.8,8.8-20.5,15.5c-4.7,6.7-7.1,14.4-7.1,23.1     c0,9.1,2.2,16.7,6.7,22.8c4.5,6.1,10.5,10.9,18.1,14.5c7.6,3.5,17.1,6.6,28.4,9.3c8.4,1.9,15.2,3.8,20.2,5.5     c5,1.7,9.1,4.2,12.3,7.5c3.2,3.3,4.8,7.5,4.8,12.7c0,6.6-2.9,12.1-8.8,16.5c-5.9,4.4-13.6,6.6-23,6.6c-6.9,0-12.4-1.1-16.6-3.3     c-4.2-2.2-7.5-4.9-9.8-8.3c-2.3-3.4-4.5-7.5-6.5-12.5c-1.6-4.2-3.6-7.4-6-9.5c-2.3-2.1-5.2-3.2-8.5-3.2c-4.1,0-7.6,1.4-10.2,4.1     c-2.7,2.8-4,6.1-4,9.9c0,6.6,2.2,13.5,6.7,20.5c4.5,7,10.3,12.7,17.4,16.9c7.8,4.5,17.2,7.3,28.3,8.3v23.9h20.1v-23.9     c8.8-0.8,16.6-2.8,23.5-6c9.4-4.3,16.6-10.2,21.5-17.8c4.9-7.6,7.3-16.1,7.3-25.6C360.1,376.5,358.7,369.8,355.9,364.4z"/></g></g><g><g><path class="st2" d="M251.2,501.6h-132c-1.4,0-2.5-1.1-2.5-2.5c0-1.4,1.1-2.5,2.5-2.5h132c1.4,0,2.5,1.1,2.5,2.5     C253.7,500.4,252.6,501.6,251.2,501.6z"/></g><g><path class="st2" d="M313.7,501.6h-48c-1.4,0-2.5-1.1-2.5-2.5c0-1.4,1.1-2.5,2.5-2.5h48c1.4,0,2.5,1.1,2.5,2.5     C316.2,500.4,315,501.6,313.7,501.6z"/></g><g><path class="st2" d="M476.1,501.6h-38.5c-1.4,0-2.5-1.1-2.5-2.5c0-1.4,1.1-2.5,2.5-2.5h38.5c1.4,0,2.5,1.1,2.5,2.5     C478.6,500.4,477.5,501.6,476.1,501.6z"/></g><g><path class="st2" d="M424.6,501.6h-93.9c-1.4,0-2.5-1.1-2.5-2.5c0-1.4,1.1-2.5,2.5-2.5h93.9c1.4,0,2.5,1.1,2.5,2.5     C427.1,500.4,426,501.6,424.6,501.6z"/></g></g><g><path class="st2" d="M210.2,403.5c1.1,0,2.1-0.9,2.1-2.1v-0.2c0-1.1-0.9-2.1-2.1-2.1h-6.9V398c0-2.7-2.2-4.8-4.8-4.8h-1.2v-6.9    c0-1.1-0.9-2.1-2.1-2.1h-0.2c-1.1,0-2.1,0.9-2.1,2.1v6.9h-15.9v-6.9c0-1.1-0.9-2.1-2.1-2.1h-0.2c-1.1,0-2.1,0.9-2.1,2.1v6.9h-1.2    c-2.7,0-4.8,2.2-4.8,4.8v1.2h-6.9c-1.1,0-2.1,0.9-2.1,2.1v0.2c0,1.1,0.9,2.1,2.1,2.1h6.9v15.9h-6.9c-1.1,0-2.1,0.9-2.1,2.1v0.2    c0,1.1,0.9,2.1,2.1,2.1h6.9v1.2c0,2.7,2.2,4.8,4.8,4.8h1.2v6.9c0,1.1,0.9,2.1,2.1,2.1h0.2c1.1,0,2.1-0.9,2.1-2.1v-6.9H193v6.9    c0,1.1,0.9,2.1,2.1,2.1h0.2c1.1,0,2.1-0.9,2.1-2.1v-6.9h1.2c2.7,0,4.8-2.2,4.8-4.8v-1.2h6.9c1.1,0,2.1-0.9,2.1-2.1v-0.2    c0-1.1-0.9-2.1-2.1-2.1h-6.9v-15.9H210.2z"/></g><g><path class="st2" d="M435.4,468.3c-0.8,0-1.5-0.3-2-1c-0.8-1.1-0.6-2.7,0.5-3.5c9.8-7.4,22.1-16.6,23.4-49.6    c1.3-32.5-18.5-76-18.7-76.4c-0.6-1.3,0-2.7,1.2-3.3c1.3-0.6,2.7,0,3.3,1.2c0.8,1.8,20.4,45.1,19.1,78.7    c-1.4,35.4-15.2,45.8-25.3,53.4C436.4,468.2,435.9,468.3,435.4,468.3z"/></g><g><path class="st2" d="M377.3,488.6c-1.3,0-2.4-1-2.5-2.3c-0.1-1.4,0.9-2.6,2.3-2.7c21.1-1.6,41.8-10.7,42-10.8    c1.3-0.6,2.7,0,3.3,1.3c0.6,1.3,0,2.7-1.3,3.3c-0.9,0.4-21.6,9.5-43.6,11.2C377.4,488.6,377.4,488.6,377.3,488.6z"/></g><g><path class="st2" d="M317.3,132.7c-5.3-4.3-6.7-15.8-9.1-25.1l0,0c0,0-4.8,33.2,3.4,40.5c8.2,7.3,15.3-7.7,28.7-9.4h0    C332.8,137.8,323.7,137.9,317.3,132.7z"/></g><g><path class="st2" d="M255.8,138.8c12.9,2.2,19.8,16.4,27.8,9.3c8.2-7.3,3.4-40.5,3.4-40.5l-0.4-0.1c-2.4,9.2-3.7,20.5-9.1,25.2    C271.7,137.7,263.1,137.9,255.8,138.8z"/></g><g><path class="st2" d="M321.4,213.6h-23.8c-1.4,0-2.5-1.1-2.5-2.5c0-1.4,1.1-2.5,2.5-2.5h23.8c1.4,0,2.5,1.1,2.5,2.5    C323.9,212.5,322.8,213.6,321.4,213.6z"/></g><g><path class="st2" d="M289.9,493.5c-18.6,0-38.1-0.5-55-2.1c-1.4-0.1-2.4-1.3-2.3-2.7c0.1-1.4,1.3-2.4,2.7-2.3    c49.8,4.6,123.8,0,124.5,0c1.4-0.1,2.6,1,2.7,2.3c0.1,1.4-1,2.6-2.3,2.7C359.8,491.5,326.7,493.5,289.9,493.5z"/></g></g></svg>